<svg width="144" height="61" viewBox="0 0 144 61" xmlns="http://www.w3.org/2000/svg"><g fill="#fff"><path d="M26.034 6.154c0 .93.581 1.445 1.204 1.445.59 0 1.063-.474 1.063-1.071 0-.598-.432-1.088-1.055-1.088h-.041c.091-.373.398-.697.963-.88V3.448c-1.13.39-2.134 1.229-2.134 2.706zM30.193 3.481V15.22h4.034c2.49 0 3.976-1.353 3.976-3.42 0-1.312-.664-2.324-1.784-2.847.838-.557 1.253-1.37 1.253-2.457 0-1.843-1.411-3.014-3.685-3.014zm3.901 4.865h-2.091V5.1h1.85c1.32 0 2.034.647 2.034 1.619 0 1.079-.689 1.627-1.793 1.627zm.191 5.246h-2.282V9.906h2.316c1.253 0 2.017.706 2.017 1.826 0 1.245-.722 1.86-2.05 1.86zM43.068 15.385c2.091 0 3.552-.913 3.96-2.93h-1.769c-.24.97-1.03 1.427-2.117 1.427-1.344 0-2.233-.822-2.382-2.34h6.334a8.71 8.71 0 00.041-.93c0-2.482-1.527-3.86-3.843-3.86-2.424 0-4.308 1.793-4.308 4.383 0 2.623 1.577 4.25 4.084 4.25zm.199-7.139c1.253 0 2.05.697 2.133 1.934h-4.557c.299-1.195 1.204-1.934 2.424-1.934zM51.128 15.385c2 0 3.154-1.113 3.154-2.482 0-2.98-4.507-2.158-4.507-3.893 0-.482.423-.897 1.187-.897.921 0 1.436.44 1.452 1.237l1.553.008c-.009-1.701-.988-2.606-2.906-2.606-1.834 0-2.93 1.03-2.93 2.39 0 3.097 4.49 2.142 4.49 3.927 0 .58-.489.97-1.46.97-1.154 0-1.677-.48-1.702-1.31l-1.56-.009c.033 1.693 1.27 2.665 3.229 2.665zM59.038 15.327c.283 0 .59-.017.855-.092v-1.593c-.274.066-.506.1-.763.1-.864 0-1.287-.466-1.287-1.62v-3.76h2.034V6.918h-2.034V4.76l-1.693.215-.009 1.943H54.78v1.444h1.361l-.016 3.719c-.009 2.175.963 3.246 2.913 3.246zM64.924 3.481V15.22h1.81v-5.08h5.735v5.08h1.81V3.48h-1.81v4.997h-5.736V3.481zM79.815 15.385c2.39 0 4.292-1.876 4.292-4.317 0-2.432-1.901-4.316-4.292-4.316-2.399 0-4.3 1.876-4.3 4.316 0 2.432 1.901 4.317 4.3 4.317zm0-1.528c-1.452 0-2.54-1.153-2.54-2.789 0-1.635 1.088-2.789 2.54-2.789 1.445 0 2.532 1.154 2.532 2.79 0 1.635-1.087 2.788-2.532 2.788zM87.991 15.385c2 0 3.155-1.113 3.155-2.482 0-2.98-4.508-2.158-4.508-3.893 0-.482.424-.897 1.187-.897.922 0 1.436.44 1.453 1.237l1.552.008c-.008-1.701-.987-2.606-2.905-2.606-1.834 0-2.93 1.03-2.93 2.39 0 3.097 4.49 2.142 4.49 3.927 0 .58-.49.97-1.46.97-1.154 0-1.677-.48-1.702-1.31l-1.56-.009c.033 1.693 1.27 2.665 3.228 2.665zM95.902 15.327c.282 0 .59-.017.855-.092v-1.593c-.274.066-.506.1-.764.1-.863 0-1.286-.466-1.286-1.62v-3.76h2.033V6.918h-2.033V4.76l-1.694.215-.008 1.943h-1.361v1.444h1.361l-.016 3.719c-.009 2.175.962 3.246 2.913 3.246zM98.741 5.39c.548 0 1.013-.456 1.013-1.02 0-.557-.465-1.013-1.013-1.013-.564 0-1.03.456-1.03 1.013 0 .564.466 1.02 1.03 1.02zm-.88 9.829h1.735V6.918H97.86zM101.33 15.219h1.736v-4.865c0-1.261.797-2.075 1.959-2.075 1.153 0 1.859.747 1.859 1.984v4.956h1.735V9.948c0-1.926-1.204-3.204-3.063-3.204a3.082 3.082 0 00-2.49 1.236V6.918h-1.735zM114.147 18.821c2.333 0 3.943-1.527 3.943-4.05V6.917h-1.735v.896c-.68-.73-1.535-1.062-2.49-1.062-2.258 0-3.943 1.635-3.943 4.316s1.685 4.317 3.935 4.317c.954 0 1.818-.332 2.498-1.063v.756c0 1.51-.822 2.34-2.282 2.34-1.237 0-1.868-.514-2.067-1.477h-1.669c.257 1.784 1.577 2.88 3.81 2.88zm-.083-4.964c-1.41 0-2.39-1.054-2.39-2.789s.98-2.789 2.39-2.789c1.445 0 2.44 1.096 2.44 2.79 0 1.693-.995 2.788-2.44 2.788z"/></g><g fill="#fff"><path d="M63.33 33.919h1.735v-6.865h1.992v-1.436h-1.992v-.523c0-1.063.39-1.527 1.187-1.527.249 0 .514.033.805.1v-1.57a3.704 3.704 0 00-.814-.083c-1.925 0-2.913 1.08-2.913 3.188v.415h-1.51v1.436h1.51zM71.548 34.085c2.39 0 4.291-1.876 4.291-4.317 0-2.432-1.9-4.316-4.291-4.316-2.4 0-4.3 1.876-4.3 4.316 0 2.432 1.9 4.317 4.3 4.317zm0-1.528c-1.453 0-2.54-1.153-2.54-2.789 0-1.635 1.087-2.789 2.54-2.789 1.444 0 2.531 1.154 2.531 2.79 0 1.635-1.087 2.788-2.531 2.788zM77.076 33.919h1.685v-3.727c0-1.785.946-3.03 2.324-3.03.382 0 .631.058.847.133v-1.727a3.019 3.019 0 00-.872-.108c-.996 0-1.834.623-2.29 1.727v-1.57h-1.694z"/></g><g fill="#fff"><path d="M14.84 52.768c2.574 0 4.035-1.32 4.035-3.246 0-4.067-5.744-3.129-5.744-5.843 0-.822.564-1.387 1.71-1.387 1.245 0 1.86.615 1.884 1.669h1.785c-.033-2.133-1.22-3.246-3.578-3.246-2.266 0-3.578 1.254-3.578 3.038 0 4.275 5.745 3.221 5.745 5.944 0 .98-.69 1.519-2.134 1.519-1.46 0-2.174-.64-2.224-1.826h-1.81c.042 2.075 1.47 3.378 3.91 3.378zM20.079 52.619h1.734v-4.923c0-1.237.748-2.017 1.835-2.017 1.07 0 1.735.706 1.735 1.918v5.022h1.743v-4.931c0-1.237.73-2.009 1.818-2.009 1.07 0 1.735.706 1.735 1.918v5.022h1.743v-5.271c0-1.926-1.162-3.204-2.964-3.204-1.187 0-2.133.514-2.764 1.419-.49-.888-1.378-1.42-2.54-1.42-.98 0-1.85.474-2.407 1.23v-1.055H20.08zM36.481 52.785c1.27 0 2.158-.432 2.88-1.411l.1 1.245h1.436v-5.097c0-2.067-1.345-3.37-3.403-3.37-1.901 0-3.113 1.004-3.329 2.606l1.61.025c.191-.68.706-1.12 1.644-1.12 1.154 0 1.826.73 1.826 1.925v.44a7.408 7.408 0 00-2.266-.373c-2.117 0-3.312 1.012-3.304 2.615-.008 1.56 1.021 2.515 2.806 2.515zm-1.087-2.598c-.009-.69.572-1.163 1.701-1.163.78 0 1.42.117 2.134.407-.125 1.013-1.038 1.893-2.416 1.893-.971 0-1.428-.449-1.42-1.137zM42.582 52.619h1.735V40.88h-1.735zM46.052 52.619h1.735V40.88h-1.735zM53.431 40.881V52.62h4.034c2.49 0 3.976-1.353 3.976-3.42 0-1.312-.664-2.324-1.784-2.847.838-.557 1.253-1.37 1.253-2.457 0-1.843-1.411-3.014-3.685-3.014zm3.902 4.865H55.24V42.5h1.85c1.32 0 2.034.647 2.034 1.619 0 1.079-.688 1.627-1.792 1.627zm.19 5.246h-2.282v-3.686h2.316c1.253 0 2.017.706 2.017 1.826 0 1.245-.722 1.86-2.05 1.86zM65.567 52.793a3.082 3.082 0 002.49-1.237v1.063h1.735v-8.301h-1.735v4.864c0 1.254-.797 2.075-1.959 2.075-1.154 0-1.86-.747-1.86-1.984v-4.955h-1.734v5.263c0 1.925 1.204 3.212 3.063 3.212zM74.183 52.785c2 0 3.154-1.113 3.154-2.482 0-2.98-4.507-2.158-4.507-3.893 0-.482.423-.897 1.187-.897.921 0 1.436.44 1.453 1.237l1.552.008c-.008-1.701-.988-2.606-2.905-2.606-1.835 0-2.93 1.03-2.93 2.39 0 3.097 4.49 2.142 4.49 3.927 0 .58-.49.97-1.46.97-1.154 0-1.677-.48-1.702-1.31l-1.56-.009c.032 1.693 1.27 2.665 3.228 2.665zM79.404 42.79c.548 0 1.013-.456 1.013-1.02 0-.557-.465-1.013-1.013-1.013-.564 0-1.029.456-1.029 1.013 0 .564.465 1.02 1.03 1.02zm-.88 9.829h1.735v-8.301h-1.735zM81.994 52.619h1.735v-4.865c0-1.261.797-2.075 1.959-2.075 1.154 0 1.86.747 1.86 1.984v4.956h1.734v-5.271c0-1.926-1.203-3.204-3.063-3.204a3.082 3.082 0 00-2.49 1.236v-1.062h-1.735zM94.645 52.785c2.091 0 3.552-.913 3.959-2.93h-1.768c-.24.97-1.03 1.427-2.117 1.427-1.344 0-2.233-.822-2.382-2.34h6.333a8.71 8.71 0 00.042-.93c0-2.482-1.527-3.86-3.843-3.86-2.424 0-4.308 1.793-4.308 4.383 0 2.623 1.577 4.25 4.084 4.25zm.199-7.139c1.253 0 2.05.697 2.133 1.934H92.42c.299-1.195 1.204-1.934 2.424-1.934zM102.705 52.785c2 0 3.154-1.113 3.154-2.482 0-2.98-4.507-2.158-4.507-3.893 0-.482.423-.897 1.187-.897.921 0 1.436.44 1.452 1.237l1.552.008c-.008-1.701-.987-2.606-2.905-2.606-1.834 0-2.93 1.03-2.93 2.39 0 3.097 4.49 2.142 4.49 3.927 0 .58-.489.97-1.46.97-1.154 0-1.677-.48-1.702-1.31l-1.56-.009c.033 1.693 1.27 2.665 3.229 2.665zM109.694 52.785c2 0 3.154-1.113 3.154-2.482 0-2.98-4.507-2.158-4.507-3.893 0-.482.423-.897 1.187-.897.921 0 1.436.44 1.452 1.237l1.553.008c-.009-1.701-.988-2.606-2.906-2.606-1.834 0-2.93 1.03-2.93 2.39 0 3.097 4.491 2.142 4.491 3.927 0 .58-.49.97-1.46.97-1.155 0-1.678-.48-1.703-1.31l-1.56-.009c.033 1.693 1.27 2.665 3.229 2.665zM117.704 52.785c2.092 0 3.553-.913 3.96-2.93h-1.768c-.241.97-1.03 1.427-2.117 1.427-1.345 0-2.233-.822-2.383-2.34h6.334a8.71 8.71 0 00.041-.93c0-2.482-1.527-3.86-3.843-3.86-2.424 0-4.308 1.793-4.308 4.383 0 2.623 1.577 4.25 4.084 4.25zm.2-7.139c1.253 0 2.05.697 2.133 1.934h-4.558c.3-1.195 1.204-1.934 2.424-1.934zM125.764 52.785c2 0 3.154-1.113 3.154-2.482 0-2.98-4.507-2.158-4.507-3.893 0-.482.423-.897 1.187-.897.922 0 1.436.44 1.453 1.237l1.552.008c-.008-1.701-.988-2.606-2.905-2.606-1.835 0-2.93 1.03-2.93 2.39 0 3.097 4.49 2.142 4.49 3.927 0 .58-.49.97-1.46.97-1.154 0-1.677-.48-1.702-1.31l-1.56-.009c.032 1.693 1.27 2.665 3.228 2.665zM132.38 42.317c0-.921-.59-1.436-1.212-1.436-.59 0-1.063.465-1.063 1.071 0 .598.44 1.08 1.055 1.08h.05c-.092.373-.407.705-.963.88v1.111c1.128-.39 2.133-1.228 2.133-2.706z"/></g></svg>