<svg width="419.685" height="169.66" viewBox="0 0 419.685 169.66" xmlns="http://www.w3.org/2000/svg"><g fill="#fff"><path d="M2.519 11.949v32.38h3.824V17.1L16.51 44.328h3.687L30.364 17.17v27.158h3.802v-32.38h-5.61L18.48 38.719 8.404 11.948zM49.05 44.786c5.61 0 9.595-2.519 10.786-7.946h-3.847c-.87 3.206-3.344 4.626-6.801 4.626-4.351 0-7.214-2.817-7.488-7.671h18.342c.069-.825.091-1.58.091-2.405 0-6.686-4.282-10.419-10.533-10.419-6.778 0-11.77 5.038-11.77 12.137 0 7.121 4.35 11.678 11.22 11.678zm.458-20.54c4.008 0 6.733 2.313 6.824 6.526h-14.45c.78-3.939 3.642-6.526 7.626-6.526zM63.752 44.328h3.8V30.955c0-4.007 2.657-6.618 6.23-6.618 3.48 0 5.587 2.176 5.587 6.069v13.922h3.801V29.764c0-5.358-3.229-8.793-8.427-8.793-3 0-5.587 1.42-7.19 3.756V11.949h-3.801zM88.048 44.328h3.71V33.291c0-5.13 2.77-8.541 6.571-8.541.894 0 1.558.137 2.222.366v-3.824c-.55-.138-1.26-.252-2.222-.252-2.862 0-5.29 1.809-6.549 4.992v-4.603h-3.732zM114.015 11.949v32.38H118V31.733h4.832c7.167 0 11.678-3.595 11.678-9.916 0-6.228-4.42-9.87-11.358-9.87zm8.954 16.19H118v-12.55h4.901c4.924 0 7.511 2.29 7.511 6.344 0 4.076-2.427 6.206-7.442 6.206zM137.67 44.328h3.71V33.291c0-5.13 2.77-8.541 6.572-8.541.893 0 1.557.137 2.221.366v-3.824c-.55-.138-1.26-.252-2.22-.252-2.863 0-5.29 1.809-6.55 4.992v-4.603h-3.733zM163.363 44.786c6.618 0 11.793-5.198 11.793-11.884 0-6.71-5.175-11.93-11.77-11.93-6.618 0-11.816 5.197-11.816 11.884 0 6.71 5.198 11.93 11.793 11.93zm.023-3.343c-4.488 0-7.923-3.64-7.923-8.587 0-4.9 3.435-8.542 7.9-8.542 4.489 0 7.924 3.641 7.924 8.588 0 4.9-3.435 8.541-7.9 8.541zM180.149 44.328h3.8V24.612h5.68V21.43h-5.68v-2.107c0-3.091 1.146-4.465 3.39-4.465.71 0 1.465.115 2.29.366v-3.457c-.687-.184-1.512-.275-2.267-.275-4.626 0-7.213 2.794-7.213 8.152v1.786h-4.122v3.183h4.122zM201.353 44.786c5.61 0 9.595-2.519 10.786-7.946h-3.847c-.87 3.206-3.344 4.626-6.801 4.626-4.351 0-7.214-2.817-7.488-7.671h18.342c.069-.825.092-1.58.092-2.405 0-6.686-4.283-10.419-10.534-10.419-6.778 0-11.77 5.038-11.77 12.137 0 7.121 4.35 11.678 11.22 11.678zm.458-20.54c4.008 0 6.733 2.313 6.824 6.526h-14.45c.78-3.939 3.642-6.526 7.626-6.526zM222.947 44.786c5.473 0 8.587-2.885 8.587-6.663 0-8.588-12.915-5.473-12.915-11.038 0-1.626 1.374-3.068 3.962-3.068 2.931 0 4.534 1.397 4.648 3.916h3.458c-.046-4.42-2.748-6.962-7.923-6.962-4.9 0-7.763 2.84-7.763 6.343 0 8.748 12.847 5.336 12.847 11.13 0 1.992-1.603 3.343-4.81 3.32-3.526 0-5.129-1.512-5.243-4.19h-3.504c.184 4.556 3.32 7.212 8.656 7.212zM241.77 44.786c5.473 0 8.588-2.885 8.588-6.663 0-8.588-12.915-5.473-12.915-11.038 0-1.626 1.373-3.068 3.961-3.068 2.931 0 4.534 1.397 4.649 3.916h3.457c-.045-4.42-2.747-6.962-7.923-6.962-4.9 0-7.763 2.84-7.763 6.343 0 8.748 12.847 5.336 12.847 11.13 0 1.992-1.603 3.343-4.809 3.32-3.526 0-5.13-1.512-5.244-4.19h-3.503c.183 4.556 3.32 7.212 8.655 7.212zM255.625 16.483c1.282 0 2.358-1.076 2.358-2.382 0-1.305-1.076-2.381-2.358-2.381a2.394 2.394 0 00-2.382 2.381 2.394 2.394 0 002.382 2.382zM253.7 44.328h3.801V21.43h-3.801zM272.799 44.786c6.618 0 11.793-5.198 11.793-11.884 0-6.71-5.175-11.93-11.77-11.93-6.618 0-11.816 5.197-11.816 11.884 0 6.71 5.198 11.93 11.793 11.93zm.023-3.343c-4.488 0-7.923-3.64-7.923-8.587 0-4.9 3.435-8.542 7.9-8.542 4.488 0 7.923 3.641 7.923 8.588 0 4.9-3.435 8.541-7.9 8.541zM288.096 44.328h3.801V30.955c0-4.007 2.656-6.618 6.229-6.618 3.48 0 5.587 2.176 5.587 6.069v13.922h3.801V29.764c0-5.358-3.229-8.793-8.427-8.793-3 0-5.587 1.42-7.19 3.756v-3.298h-3.801zM318.712 44.786c3.778 0 6.343-1.328 8.267-4.328l.206 3.87h3.183V30.154c0-5.725-3.527-9.183-9.045-9.183-4.81 0-8.176 2.52-9.069 6.801l3.573.046c.664-2.198 2.473-3.526 5.312-3.526 3.527 0 5.634 2.198 5.634 6.068v1.649c-2.061-.733-4.237-1.191-6.618-1.191-5.771 0-9.16 2.816-9.137 7.19-.023 4.122 2.77 6.778 7.694 6.778zm-3.893-6.984c-.023-2.29 1.924-3.939 5.496-3.939 2.359 0 4.26.39 6.412 1.306-.298 3.366-2.84 6.389-7.35 6.389-3.115 0-4.58-1.512-4.558-3.756zM335.062 44.328h3.801v-32.38h-3.8zM345.848 16.483c1.282 0 2.358-1.076 2.358-2.382 0-1.305-1.076-2.381-2.358-2.381a2.394 2.394 0 00-2.382 2.381 2.394 2.394 0 002.382 2.382zm-1.924 27.845h3.801V21.43h-3.8zM361.74 44.695c.847 0 1.763-.092 2.496-.32v-3.481a7.793 7.793 0 01-2.29.32c-2.473 0-3.756-1.397-3.756-4.992V24.681h5.954v-3.252h-5.954v-5.954l-3.732.481v5.473h-3.802v3.252h3.779l-.023 11.541c0 5.725 2.496 8.473 7.328 8.473zM372.159 16.391a2.263 2.263 0 002.267-2.29c0-1.213-1.008-2.244-2.267-2.244-1.26 0-2.267 1.03-2.267 2.244a2.263 2.263 0 002.267 2.29zm8.335 0a2.263 2.263 0 002.267-2.29c0-1.213-1.007-2.244-2.267-2.244s-2.267 1.03-2.267 2.244a2.263 2.263 0 002.267 2.29zm-6.847 28.395c3.779 0 6.343-1.328 8.267-4.328l.206 3.87h3.183V30.154c0-5.725-3.526-9.183-9.045-9.183-4.809 0-8.175 2.52-9.068 6.801l3.572.046c.664-2.198 2.473-3.526 5.313-3.526 3.526 0 5.633 2.198 5.633 6.068v1.649c-2.061-.733-4.236-1.191-6.618-1.191-5.77 0-9.16 2.816-9.137 7.19-.023 4.122 2.771 6.778 7.694 6.778zm-3.893-6.984c-.022-2.29 1.924-3.939 5.496-3.939 2.359 0 4.26.39 6.412 1.306-.298 3.366-2.84 6.389-7.35 6.389-3.115 0-4.58-1.512-4.558-3.756zM398.928 44.695c.847 0 1.763-.092 2.496-.32v-3.481a7.793 7.793 0 01-2.29.32c-2.473 0-3.755-1.397-3.755-4.992V24.681h5.954v-3.252h-5.954v-5.954l-3.733.481v5.473h-3.801v3.252h3.778l-.023 11.541c0 5.725 2.496 8.473 7.328 8.473z"/></g><g fill="#fff"><path d="M4.35 100.606h3.802V80.889h5.68v-3.183h-5.68V75.6c0-3.092 1.145-4.466 3.39-4.466.71 0 1.465.115 2.29.367v-3.458c-.688-.183-1.512-.275-2.268-.275-4.626 0-7.213 2.794-7.213 8.152v1.786H.229v3.183h4.122zM21.892 72.898a2.277 2.277 0 002.267-2.29c0-1.214-1.03-2.245-2.267-2.245a2.253 2.253 0 00-2.267 2.245c0 1.282.984 2.29 2.267 2.29zm8.335 0a2.277 2.277 0 002.267-2.29c0-1.214-1.03-2.245-2.267-2.245a2.253 2.253 0 00-2.267 2.245c0 1.282.985 2.29 2.267 2.29zm-5.45 28.166c3 0 5.587-1.42 7.19-3.756v3.298h3.779v-22.9h-3.779V91.08c0 4.007-2.656 6.617-6.228 6.617-3.48 0-5.588-2.175-5.588-6.068V77.706h-3.8v14.541c0 5.359 3.205 8.817 8.426 8.817zM40.806 100.606h3.71V89.568c0-5.13 2.771-8.541 6.572-8.541.893 0 1.557.137 2.221.366V77.57c-.55-.137-1.259-.252-2.22-.252-2.863 0-5.29 1.81-6.55 4.992v-4.603h-3.733zM87.613 100.606v-32.38h-3.779v12.847c-1.855-2.565-4.488-3.825-7.602-3.825-6.183 0-10.717 4.534-10.717 11.93 0 7.352 4.534 11.886 10.694 11.886 3.114 0 5.77-1.26 7.625-3.825v3.367zM76.598 97.72c-4.282 0-7.213-3.274-7.213-8.587 0-5.267 2.93-8.541 7.259-8.541 4.465 0 7.51 3.274 7.51 8.564s-3.045 8.564-7.556 8.564zM102.52 101.064c5.61 0 9.595-2.52 10.786-7.946h-3.848c-.87 3.205-3.343 4.625-6.8 4.625-4.351 0-7.214-2.816-7.489-7.671h18.343c.068-.824.091-1.58.091-2.404 0-6.687-4.282-10.42-10.533-10.42-6.779 0-11.77 5.038-11.77 12.137 0 7.122 4.35 11.679 11.22 11.679zm.458-20.541c4.007 0 6.732 2.313 6.824 6.526h-14.45c.78-3.938 3.642-6.526 7.626-6.526zM119.145 72.76c1.282 0 2.359-1.076 2.359-2.381 0-1.306-1.077-2.382-2.36-2.382a2.394 2.394 0 00-2.38 2.382 2.394 2.394 0 002.38 2.381zm-1.924 27.846h3.802v-22.9h-3.802zM126.083 100.606h3.802V87.232c0-4.007 2.656-6.617 6.228-6.617 3.48 0 5.588 2.175 5.588 6.068v13.923h3.8V86.042c0-5.359-3.228-8.794-8.426-8.794-3 0-5.587 1.42-7.19 3.756v-3.298h-3.802zM160.226 101.064c5.61 0 9.595-2.52 10.786-7.946h-3.847c-.87 3.205-3.344 4.625-6.801 4.625-4.351 0-7.214-2.816-7.488-7.671h18.342c.069-.824.091-1.58.091-2.404 0-6.687-4.282-10.42-10.533-10.42-6.778 0-11.77 5.038-11.77 12.137 0 7.122 4.35 11.679 11.22 11.679zm.458-20.541c4.008 0 6.733 2.313 6.824 6.526h-14.45c.78-3.938 3.642-6.526 7.626-6.526zM174.928 100.606h3.8V87.232c0-4.007 2.657-6.617 6.23-6.617 3.48 0 5.587 2.175 5.587 6.068v13.923h3.801V86.042c0-5.359-3.229-8.794-8.427-8.794-3 0-5.587 1.42-7.19 3.756v-3.298h-3.801zM222.856 68.226h-3.069l-12.297 32.38h4.214l2.748-7.511H228.1l2.748 7.51h4.305zm-7.282 21.457l5.656-15.847 5.748 15.847zM246.076 101.064c3 0 5.587-1.42 7.19-3.756v3.298h3.778v-22.9h-3.778V91.08c0 4.007-2.656 6.617-6.229 6.617-3.48 0-5.587-2.175-5.587-6.068V77.706h-3.801v14.541c0 5.359 3.205 8.817 8.427 8.817zM283.035 100.903c.847 0 1.763-.114 2.496-.32v-3.435c-.802.229-1.466.343-2.29.343-2.473 0-3.755-1.397-3.755-4.992V80.844h6.16v-3.138h-6.16v-8.06c-2.153-1.214-4.626-1.878-7.42-1.878-4.74 0-8.129 2.885-8.129 8.175v1.763h-4.122v3.138h4.122v19.762h3.801V80.844h7.992l-.023 11.587c0 5.724 2.496 8.472 7.328 8.472zm-15.297-23.197v-1.74c0-3.458 1.466-4.9 4.466-4.9 1.305 0 2.427.274 3.572.824l-.023 5.816zM288.554 100.606h3.71V89.568c0-5.13 2.77-8.541 6.571-8.541.894 0 1.558.137 2.222.366V77.57c-.55-.137-1.26-.252-2.222-.252-2.862 0-5.29 1.81-6.549 4.992v-4.603h-3.732zM306.278 72.76c1.282 0 2.358-1.076 2.358-2.381 0-1.306-1.076-2.382-2.358-2.382a2.394 2.394 0 00-2.382 2.382 2.394 2.394 0 002.382 2.381zm-1.924 27.846h3.801v-22.9h-3.8zM322.17 100.972c.847 0 1.763-.092 2.496-.32V97.17a7.793 7.793 0 01-2.29.32c-2.473 0-3.756-1.397-3.756-4.992V80.96h5.954v-3.253h-5.954v-5.953l-3.732.48v5.473h-3.801v3.252h3.778l-.023 11.541c0 5.725 2.496 8.473 7.328 8.473zM337.054 100.972c.848 0 1.764-.092 2.496-.32V97.17a7.793 7.793 0 01-2.29.32c-2.473 0-3.755-1.397-3.755-4.992V80.96h5.954v-3.253h-5.954v-5.953l-3.733.48v5.473h-3.8v3.252h3.777l-.022 11.541c0 5.725 2.496 8.473 7.327 8.473z"/></g><g fill="#fff"><path d="M2.519 156.883H6.32v-13.488c0-3.961 2.565-6.503 6-6.503 3.366 0 5.381 2.107 5.381 5.954v14.037h3.801v-13.488c0-3.984 2.542-6.503 6-6.503 3.343 0 5.381 2.107 5.381 5.954v14.037h3.802v-14.564c0-5.358-3.16-8.793-8.244-8.793-3.412 0-6.137 1.603-7.855 4.35-1.259-2.747-3.824-4.35-7.327-4.35-2.954 0-5.496 1.42-7.053 3.755v-3.297H2.519zM43.486 129.037c1.282 0 2.358-1.076 2.358-2.381 0-1.305-1.076-2.382-2.358-2.382a2.394 2.394 0 00-2.382 2.382 2.394 2.394 0 002.382 2.381zm-1.924 27.846h3.801v-22.9h-3.8zM59.378 157.25c.847 0 1.763-.092 2.496-.321v-3.481a7.793 7.793 0 01-2.29.32c-2.473 0-3.756-1.396-3.756-4.991v-11.542h5.954v-3.251h-5.954v-5.954l-3.732.48v5.474h-3.801v3.251h3.778l-.023 11.542c0 5.724 2.496 8.472 7.328 8.472zM75.11 124.503v32.38h3.824v-27.227L89.1 156.883h3.687l10.167-27.159v27.159h3.801v-32.38h-5.61l-10.076 26.77-10.075-26.77zM113.718 129.037c1.282 0 2.358-1.076 2.358-2.381 0-1.305-1.076-2.382-2.358-2.382a2.394 2.394 0 00-2.382 2.382 2.394 2.394 0 002.382 2.381zm-1.924 27.846h3.802v-22.9h-3.802zM130.297 157.34c5.61 0 9.434-2.633 10.808-7.602h-3.847c-.984 2.84-3.137 4.305-6.663 4.305-4.512 0-7.466-3.16-7.466-8.61 0-5.038 3.183-8.61 7.466-8.61 3.526 0 5.518 1.397 6.411 4.282h3.916c-1.282-5.083-4.671-7.58-10.35-7.58-6.435 0-11.29 5.13-11.29 12 0 7.144 4.511 11.816 11.015 11.816zM144.403 156.883h3.71v-11.038c0-5.129 2.77-8.541 6.572-8.541.893 0 1.557.137 2.22.366v-3.824c-.549-.137-1.259-.252-2.22-.252-2.863 0-5.29 1.81-6.55 4.992v-4.602h-3.732zM170.096 157.34c6.618 0 11.793-5.197 11.793-11.884 0-6.71-5.175-11.93-11.77-11.93-6.618 0-11.816 5.198-11.816 11.884 0 6.71 5.198 11.93 11.793 11.93zm.023-3.342c-4.489 0-7.923-3.641-7.923-8.588 0-4.9 3.434-8.541 7.9-8.541 4.488 0 7.923 3.64 7.923 8.587 0 4.9-3.435 8.542-7.9 8.542zM192.285 157.34c5.473 0 8.587-2.884 8.587-6.663 0-8.587-12.915-5.473-12.915-11.037 0-1.626 1.374-3.069 3.962-3.069 2.93 0 4.534 1.397 4.648 3.916h3.458c-.046-4.42-2.748-6.961-7.923-6.961-4.9 0-7.763 2.84-7.763 6.343 0 8.747 12.847 5.335 12.847 11.129 0 1.992-1.603 3.343-4.81 3.32-3.526 0-5.129-1.511-5.243-4.19h-3.504c.183 4.557 3.32 7.213 8.656 7.213zM214.452 157.34c6.618 0 11.793-5.197 11.793-11.884 0-6.71-5.175-11.93-11.77-11.93-6.618 0-11.816 5.198-11.816 11.884 0 6.71 5.198 11.93 11.793 11.93zm.023-3.342c-4.489 0-7.924-3.641-7.924-8.588 0-4.9 3.435-8.541 7.9-8.541 4.489 0 7.924 3.64 7.924 8.587 0 4.9-3.435 8.542-7.9 8.542zM250.678 157.18c.848 0 1.764-.114 2.496-.32v-3.435c-.801.23-1.465.344-2.29.344-2.473 0-3.755-1.397-3.755-4.992V137.12h6.16v-3.137h-6.16v-8.06c-2.153-1.215-4.626-1.879-7.42-1.879-4.74 0-8.129 2.886-8.129 8.175v1.764h-4.122v3.137h4.122v19.762h3.802V137.12h7.991l-.022 11.587c0 5.725 2.496 8.473 7.327 8.473zm-15.296-23.196v-1.74c0-3.459 1.465-4.901 4.465-4.901 1.305 0 2.427.275 3.572.824l-.023 5.817zM276.28 157.34c6.961 0 11.495-3.64 11.495-9.64 0-4.373-2.152-7.076-6.183-8.243 2.817-1.283 4.489-3.367 4.489-7.053 0-4.97-3.802-8.359-9.664-8.359-5.61 0-10.076 3.504-10.076 9.366h3.733c.023-3.572 2.496-5.908 6.229-5.908 3.503 0 5.839 2.015 5.839 5.359 0 3.915-2.77 5.335-6.526 5.335h-1.512v3.366h1.557c4.214 0 8.038 1.466 8.038 6.091 0 3.985-2.885 6.206-7.35 6.206-4.603 0-7.534-2.496-7.534-6.778h-3.87c0 6.64 4.785 10.259 11.335 10.259zM302.018 157.34c6.366 0 11.221-5.037 11.221-10.922 0-6.183-4.786-10.557-10.877-10.557-.893 0-1.9.115-2.885.504l7.625-11.862h-4.488l-8.336 13.373c-1.625 2.497-3.457 5.45-3.457 8.634 0 6 4.877 10.83 11.197 10.83zm.023-3.709c-4.076 0-7.373-3.206-7.373-7.19 0-3.985 3.343-7.19 7.373-7.19 4.054 0 7.328 3.228 7.328 7.19 0 3.961-3.32 7.19-7.328 7.19zM327.139 157.34c6.755 0 11.518-4.556 11.518-11.174 0-6.595-4.35-11.015-10.19-11.015-2.519 0-4.786.665-6.961 2.29l1.671-9.297h13.717v-3.64h-16.83l-2.978 16.693 3.458.939c1.97-2.52 4.282-3.504 7.145-3.504 4.098 0 6.938 3.069 6.938 7.74 0 4.42-2.931 7.442-7.442 7.442-4.168 0-6.572-2.152-7.168-6.274l-3.87-.023c.802 6.229 4.489 9.824 10.992 9.824zM352.786 124.503v32.38h20.587v-3.687H356.77v-10.923h14.586v-3.595h-14.586v-10.58h16.602v-3.595zM379.258 142.136v3.022h12.686v-3.022z"/></g><g fill="#fff"><path d="M2.519 180.78v32.38h3.824v-27.227L16.51 213.16h3.687l10.167-27.158v27.158h3.802v-32.38h-5.61L18.48 207.55 8.404 180.78zM45.478 213.618c3.778 0 6.343-1.328 8.267-4.328l.206 3.87h3.183v-14.175c0-5.724-3.527-9.182-9.046-9.182-4.808 0-8.175 2.519-9.068 6.801l3.573.046c.664-2.199 2.473-3.527 5.312-3.527 3.527 0 5.633 2.199 5.633 6.069v1.648c-2.06-.732-4.236-1.19-6.617-1.19-5.771 0-9.16 2.816-9.137 7.19-.023 4.122 2.77 6.778 7.694 6.778zm-3.893-6.984c-.023-2.29 1.924-3.939 5.496-3.939 2.359 0 4.26.39 6.412 1.305-.298 3.367-2.84 6.39-7.351 6.39-3.114 0-4.58-1.512-4.557-3.756zM63.752 185.315c1.282 0 2.358-1.077 2.358-2.382 0-1.305-1.076-2.381-2.358-2.381a2.394 2.394 0 00-2.382 2.381 2.394 2.394 0 002.382 2.382zm-1.924 27.845h3.801v-22.9h-3.801zM70.69 213.16h3.801v-32.38H70.69z"/></g></svg>