<svg width="100%" height="100%" viewBox="0 0 200 200" fill="none" xmlns="http://www.w3.org/2000/svg" preserveAspectRatio="none"><circle cx="100" cy="100" r="100" fill="#1BDBDB" data-color-group="0"/><path d="M139.967 59.8068L111.708 48.2754C104.199 45.2415 95.8012 45.2415 88.2924 48.2754L60.0363 59.8095C57.1185 60.9356 54.6044 62.9053 52.8162 65.4662C51.0281 68.027 50.0474 71.0623 50 74.1828V94.7572C50.3365 108.788 55.3383 122.31 64.2191 133.196C73.0999 144.082 85.3558 151.715 99.0597 154.894C99.6786 155.035 100.321 155.035 100.94 154.894C114.644 151.714 126.9 144.081 135.78 133.196C144.661 122.31 149.663 108.788 150 94.7572V74.1828C149.952 71.0626 148.971 68.0278 147.183 65.4668C145.396 62.9058 142.883 60.935 139.967 59.8068ZM141.429 94.7572C141.126 106.69 136.911 118.196 129.429 127.511C121.946 136.826 111.609 143.438 100 146.333C88.3909 143.438 78.0533 136.827 70.5706 127.511C63.088 118.196 58.873 106.69 58.5714 94.7572V74.1828C58.6248 72.7608 59.1015 71.3869 59.9409 70.2363C60.7802 69.0858 61.9441 68.2106 63.2841 67.7226L91.5346 56.1912C96.9626 54.0007 103.032 54.0007 108.46 56.1912L136.719 67.7198C138.058 68.2089 139.222 69.0847 140.06 70.2357C140.899 71.3867 141.375 72.7608 141.429 74.1828V94.7572Z" fill="#111111" data-color-group="1"/><path d="M114.113 86.4239L95.7143 104.777L85.8873 94.9744C85.0831 94.1753 83.9939 93.7271 82.8589 93.7283C81.7238 93.7294 80.6355 94.1797 79.8329 94.9803C79.0303 95.781 78.5789 96.8666 78.5778 97.9989C78.5767 99.1311 79.026 100.218 79.827 101.02L92.6842 113.845C93.4799 114.64 94.5887 115.098 95.7143 115.098C96.8399 115.098 97.9487 114.64 98.7444 113.845L120.173 92.4694C120.974 91.6672 121.423 90.5807 121.422 89.4484C121.421 88.3161 120.97 87.2305 120.167 86.4299C119.364 85.6292 118.276 85.1789 117.141 85.1778C116.006 85.1767 114.917 85.6249 114.113 86.4239Z" fill="#111111" data-color-group="1"/></svg>