<svg width="100%" height="100%" viewBox="0 0 200 200" fill="none" xmlns="http://www.w3.org/2000/svg" preserveAspectRatio="none"><circle cx="100" cy="100" r="100" fill="#1BDBDB" data-color-group="0"/><path d="M62.5 59.375C64.2259 59.375 65.625 60.7741 65.625 62.5V129.167C65.625 132.043 67.9568 134.375 70.8333 134.375H137.5C139.226 134.375 140.625 135.774 140.625 137.5C140.625 139.226 139.226 140.625 137.5 140.625H70.8333C64.5051 140.625 59.375 135.495 59.375 129.167V62.5C59.375 60.7741 60.7741 59.375 62.5 59.375Z" fill="#111111" data-color-group="1"/><path d="M133.333 76.0417C133.521 76.0417 133.704 76.0589 133.883 76.0905C133.906 76.0946 133.929 76.0981 133.952 76.1027C134.008 76.1139 134.06 76.1374 134.115 76.1515C134.253 76.1873 134.392 76.2226 134.526 76.2777C134.647 76.3278 134.758 76.3963 134.871 76.4608C135.109 76.5962 135.34 76.7542 135.543 76.9572C135.744 77.1588 135.9 77.3883 136.035 77.6245C136.1 77.7376 136.168 77.849 136.218 77.9704C136.305 78.1787 136.366 78.3941 136.405 78.6133C136.438 78.7931 136.458 78.9776 136.458 79.1667V93.75C136.458 95.4759 135.059 96.875 133.333 96.875C131.607 96.875 130.208 95.4759 130.208 93.75V86.7106L114.962 101.957C111.301 105.618 105.366 105.618 101.705 101.957L98.0428 98.2951C96.8225 97.0753 94.8441 97.0753 93.6239 98.2951L77.2095 114.709C75.9891 115.93 74.0109 115.93 72.7905 114.709C71.5702 113.489 71.5703 111.511 72.7905 110.291L89.2049 93.8761C92.866 90.2156 98.8007 90.2156 102.462 93.8761L106.124 97.5382C107.344 98.7579 109.323 98.7578 110.543 97.5382L125.789 82.2917H118.75C117.024 82.2917 115.625 80.8926 115.625 79.1667C115.625 77.4408 117.024 76.0417 118.75 76.0417H133.333Z" fill="#111111" data-color-group="1"/></svg>