<svg width="518.006" height="206.525" viewBox="0 0 518.006 206.525" xmlns="http://www.w3.org/2000/svg"><g fill="#111"><path d="M3.091 14.664v39.74h4.694V20.987l12.478 33.415h4.524l12.478-33.33v33.33h4.666V14.664h-6.886L22.68 47.518 10.314 14.664zM55.56 20.117c1.547 0 2.783-1.237 2.783-2.81 0-1.49-1.236-2.755-2.782-2.755s-2.782 1.265-2.782 2.754c0 1.574 1.236 2.81 2.782 2.81zm10.23 0c1.546 0 2.783-1.237 2.783-2.81 0-1.49-1.237-2.755-2.782-2.755-1.546 0-2.783 1.265-2.783 2.754 0 1.574 1.237 2.81 2.783 2.81zm-5.114 34.848c8.122 0 14.473-6.38 14.473-14.586 0-8.234-6.351-14.642-14.445-14.642-8.122 0-14.502 6.38-14.502 14.586 0 8.235 6.38 14.642 14.474 14.642zm.028-4.103c-5.508 0-9.724-4.468-9.724-10.539 0-6.014 4.216-10.483 9.696-10.483 5.508 0 9.724 4.469 9.724 10.54 0 6.014-4.216 10.482-9.696 10.482zM91.28 54.965c6.886 0 11.58-3.232 13.266-9.33h-4.722c-1.208 3.485-3.85 5.283-8.178 5.283-5.536 0-9.162-3.878-9.162-10.567 0-6.183 3.907-10.567 9.162-10.567 4.328 0 6.773 1.715 7.87 5.256h4.805c-1.574-6.24-5.733-9.303-12.703-9.303-7.897 0-13.855 6.296-13.855 14.727 0 8.768 5.536 14.501 13.518 14.501zM108.593 54.403h4.665V37.991c0-4.919 3.26-8.122 7.644-8.122 4.272 0 6.857 2.67 6.857 7.447v17.087h4.665V36.53c0-6.576-3.962-10.792-10.342-10.792-3.681 0-6.857 1.743-8.824 4.61V14.663h-4.665zM149.4 54.853c1.039 0 2.163-.113 3.062-.394v-4.271a9.564 9.564 0 01-2.81.393c-3.035 0-4.609-1.714-4.609-6.127V30.29h7.307V26.3h-7.307v-7.308l-4.58.59V26.3h-4.666v3.991h4.637l-.028 14.164c0 7.026 3.063 10.399 8.993 10.399zM168.313 54.965c6.885 0 11.775-3.091 13.237-9.752h-4.722c-1.068 3.935-4.103 5.677-8.347 5.677-5.34 0-8.852-3.457-9.19-9.415h22.512c.084-1.011.112-1.939.112-2.95 0-8.207-5.255-12.788-12.928-12.788-8.318 0-14.445 6.183-14.445 14.895 0 8.74 5.34 14.333 13.77 14.333zm.562-25.209c4.918 0 8.262 2.839 8.375 8.01h-17.734c.956-4.834 4.469-8.01 9.359-8.01zM194.815 54.965c6.716 0 10.538-3.54 10.538-8.178 0-10.539-15.85-6.717-15.85-13.546 0-1.995 1.686-3.766 4.862-3.766 3.597 0 5.564 1.714 5.705 4.806h4.244c-.057-5.424-3.373-8.544-9.724-8.544-6.014 0-9.527 3.485-9.527 7.785 0 10.736 15.766 6.548 15.766 13.658 0 2.445-1.967 4.104-5.902 4.075-4.328 0-6.295-1.854-6.436-5.143h-4.3c.225 5.593 4.075 8.853 10.624 8.853zM220.445 54.853c1.04 0 2.164-.113 3.063-.394v-4.271a9.564 9.564 0 01-2.81.393c-3.035 0-4.609-1.714-4.609-6.127V30.29h7.307V26.3h-7.307v-7.308l-4.58.59V26.3h-4.666v3.991h4.637l-.028 14.164c0 7.026 3.063 10.399 8.993 10.399zM265.327 54.403V14.664h-4.637v15.767c-2.277-3.148-5.509-4.694-9.33-4.694-7.589 0-13.153 5.565-13.153 14.642 0 9.022 5.564 14.586 13.124 14.586 3.822 0 7.082-1.546 9.359-4.693v4.131zm-13.518-3.541c-5.256 0-8.853-4.019-8.853-10.539 0-6.464 3.597-10.483 8.909-10.483 5.48 0 9.218 4.02 9.218 10.511 0 6.492-3.738 10.511-9.274 10.511zM281.683 54.965c3.682 0 6.857-1.742 8.825-4.609v4.047h4.637V26.3h-4.637v16.413c0 4.918-3.26 8.122-7.645 8.122-4.271 0-6.857-2.67-6.857-7.448V26.3h-4.665v17.846c0 6.576 3.934 10.82 10.342 10.82z"/></g><g fill="#111"><path d="M3.091 135.106h4.666v-15.767c2.276 3.148 5.508 4.694 9.33 4.694 7.56 0 13.153-5.565 13.153-14.642 0-9.022-5.565-14.586-13.125-14.586-3.822 0-7.082 1.546-9.358 4.693v-4.131H3.09zm13.49-15.176c-5.508 0-9.218-4.02-9.218-10.511 0-6.492 3.738-10.511 9.274-10.511 5.256 0 8.853 4.019 8.853 10.539 0 6.464-3.625 10.483-8.909 10.483zM34.877 123.47h4.552v-13.545c0-6.296 3.401-10.483 8.066-10.483 1.096 0 1.911.169 2.726.45v-4.694c-.674-.168-1.545-.309-2.726-.309-3.513 0-6.492 2.22-8.037 6.127v-5.649h-4.581zM66.409 124.033c8.122 0 14.473-6.38 14.473-14.586 0-8.234-6.351-14.642-14.445-14.642-8.122 0-14.501 6.38-14.501 14.586 0 8.234 6.38 14.642 14.473 14.642zm.028-4.103c-5.508 0-9.724-4.469-9.724-10.54 0-6.013 4.216-10.482 9.696-10.482 5.508 0 9.724 4.469 9.724 10.539 0 6.014-4.216 10.483-9.696 10.483zM87.009 123.47h4.665V99.274h6.97v-3.906h-6.97v-2.586c0-3.794 1.405-5.48 4.16-5.48.87 0 1.798.14 2.81.45v-4.244c-.843-.225-1.855-.337-2.782-.337-5.677 0-8.853 3.429-8.853 10.005v2.192H81.95v3.906h5.059zM113.033 124.033c6.885 0 11.775-3.092 13.237-9.752h-4.722c-1.068 3.934-4.103 5.677-8.346 5.677-5.34 0-8.853-3.457-9.19-9.415h22.51c.085-1.012.113-1.94.113-2.95 0-8.207-5.255-12.788-12.928-12.788-8.318 0-14.445 6.183-14.445 14.895 0 8.74 5.34 14.333 13.77 14.333zm.562-25.21c4.918 0 8.262 2.84 8.375 8.01h-17.734c.956-4.834 4.469-8.01 9.359-8.01zM139.535 124.033c6.716 0 10.539-3.541 10.539-8.178 0-10.54-15.85-6.717-15.85-13.546 0-1.996 1.685-3.766 4.861-3.766 3.597 0 5.565 1.714 5.705 4.805h4.244c-.056-5.424-3.373-8.543-9.724-8.543-6.014 0-9.527 3.485-9.527 7.785 0 10.735 15.766 6.548 15.766 13.658 0 2.445-1.967 4.103-5.902 4.075-4.328 0-6.295-1.855-6.436-5.143h-4.3c.225 5.593 4.076 8.853 10.624 8.853zM162.636 124.033c6.717 0 10.539-3.541 10.539-8.178 0-10.54-15.85-6.717-15.85-13.546 0-1.996 1.686-3.766 4.861-3.766 3.598 0 5.565 1.714 5.705 4.805h4.244c-.056-5.424-3.373-8.543-9.724-8.543-6.014 0-9.527 3.485-9.527 7.785 0 10.735 15.766 6.548 15.766 13.658 0 2.445-1.967 4.103-5.902 4.075-4.328 0-6.295-1.855-6.435-5.143h-4.3c.225 5.593 4.075 8.853 10.623 8.853zM179.639 89.297c1.573 0 2.894-1.321 2.894-2.923s-1.32-2.923-2.894-2.923a2.939 2.939 0 00-2.923 2.923 2.939 2.939 0 002.923 2.923zm-2.361 34.174h4.665V95.367h-4.665zM200.716 124.033c8.122 0 14.474-6.38 14.474-14.586 0-8.234-6.352-14.642-14.446-14.642-8.121 0-14.501 6.38-14.501 14.586 0 8.234 6.38 14.642 14.473 14.642zm.028-4.103c-5.508 0-9.723-4.469-9.723-10.54 0-6.013 4.215-10.482 9.695-10.482 5.509 0 9.724 4.469 9.724 10.539 0 6.014-4.215 10.483-9.696 10.483zM219.49 123.47h4.665v-16.412c0-4.918 3.26-8.122 7.644-8.122 4.272 0 6.857 2.67 6.857 7.448v17.087h4.666v-17.874c0-6.577-3.963-10.792-10.343-10.792-3.681 0-6.857 1.742-8.824 4.609v-4.047h-4.665zM261.392 124.033c6.886 0 11.776-3.092 13.237-9.752h-4.721c-1.068 3.934-4.104 5.677-8.347 5.677-5.34 0-8.853-3.457-9.19-9.415h22.51c.085-1.012.113-1.94.113-2.95 0-8.207-5.255-12.788-12.927-12.788-8.319 0-14.446 6.183-14.446 14.895 0 8.74 5.34 14.333 13.771 14.333zm.562-25.21c4.918 0 8.263 2.84 8.375 8.01h-17.733c.955-4.834 4.468-8.01 9.358-8.01zM279.435 123.47h4.665V83.733h-4.665zM290.31 123.47h4.666V83.733h-4.665zM313.272 124.033c6.885 0 11.775-3.092 13.236-9.752h-4.721c-1.068 3.934-4.103 5.677-8.347 5.677-5.34 0-8.853-3.457-9.19-9.415h22.511c.085-1.012.113-1.94.113-2.95 0-8.207-5.256-12.788-12.928-12.788-8.319 0-14.445 6.183-14.445 14.895 0 8.74 5.34 14.333 13.77 14.333zm.562-25.21c4.918 0 8.262 2.84 8.374 8.01h-17.733c.956-4.834 4.469-8.01 9.359-8.01zM331.314 123.47h4.553v-13.545c0-6.296 3.4-10.483 8.066-10.483 1.096 0 1.91.169 2.726.45v-4.694c-.675-.168-1.546-.309-2.726-.309-3.513 0-6.492 2.22-8.038 6.127v-5.649h-4.58z"/></g><g fill="#111"><path d="M10.848 193.1c4.637 0 7.785-1.63 10.145-5.311l.253 4.75h3.907v-17.397c0-7.026-4.328-11.27-11.101-11.27-5.902 0-10.033 3.092-11.13 8.347l4.385.056c.815-2.698 3.035-4.328 6.52-4.328 4.328 0 6.914 2.698 6.914 7.448v2.023c-2.53-.899-5.2-1.461-8.122-1.461-7.083 0-11.242 3.457-11.214 8.825-.028 5.058 3.4 8.318 9.443 8.318zM6.07 184.53c-.028-2.81 2.361-4.834 6.745-4.834 2.895 0 5.228.478 7.87 1.602-.366 4.131-3.486 7.84-9.022 7.84-3.822 0-5.62-1.854-5.593-4.608zM40.919 193.1c3.682 0 6.857-1.742 8.824-4.609v4.047h4.638v-28.103h-4.638v16.412c0 4.918-3.26 8.122-7.644 8.122-4.271 0-6.857-2.67-6.857-7.447v-17.087h-4.665v17.845c0 6.577 3.934 10.82 10.342 10.82zM86.278 192.904c1.04 0 2.164-.141 3.064-.394v-4.215c-.984.28-1.8.421-2.81.421-3.036 0-4.61-1.714-4.61-6.127v-14.304h7.56v-3.85h-7.56v-9.893c-2.642-1.49-5.677-2.304-9.105-2.304-5.818 0-9.977 3.54-9.977 10.033v2.164H57.78v3.85h5.059v24.253h4.665v-24.253h9.808l-.028 14.22c0 7.026 3.063 10.399 8.993 10.399zm-18.773-28.47V162.3c0-4.244 1.799-6.015 5.48-6.015 1.602 0 2.98.338 4.384 1.012l-.028 7.139zM93.051 192.538h4.553v-13.546c0-6.295 3.4-10.482 8.066-10.482 1.096 0 1.91.168 2.726.45v-4.694c-.675-.169-1.546-.31-2.726-.31-3.513 0-6.492 2.221-8.038 6.127v-5.648h-4.58zM124.106 193.1c6.885 0 11.775-3.091 13.237-9.752h-4.722c-1.068 3.935-4.103 5.677-8.347 5.677-5.34 0-8.852-3.457-9.19-9.414h22.512c.084-1.012.112-1.94.112-2.951 0-8.207-5.255-12.788-12.928-12.788-8.318 0-14.445 6.183-14.445 14.895 0 8.74 5.34 14.333 13.77 14.333zm.562-25.209c4.918 0 8.262 2.839 8.375 8.01h-17.734c.956-4.834 4.469-8.01 9.359-8.01zM152.912 192.988c1.04 0 2.164-.113 3.063-.394v-4.271a9.564 9.564 0 01-2.81.393c-3.035 0-4.609-1.714-4.609-6.127v-14.164h7.307v-3.99h-7.307v-7.307l-4.58.59v6.717h-4.666v3.99h4.637l-.028 14.164c0 7.026 3.063 10.399 8.993 10.399zM171.826 193.1c6.885 0 11.775-3.091 13.237-9.752h-4.722c-1.068 3.935-4.103 5.677-8.347 5.677-5.34 0-8.852-3.457-9.19-9.414h22.512c.084-1.012.112-1.94.112-2.951 0-8.207-5.255-12.788-12.928-12.788-8.318 0-14.445 6.183-14.445 14.895 0 8.74 5.34 14.333 13.77 14.333zm.562-25.209c4.918 0 8.262 2.839 8.375 8.01h-17.734c.956-4.834 4.469-8.01 9.359-8.01zM189.868 192.538h4.666v-16.412c0-4.918 3.26-8.122 7.644-8.122 4.272 0 6.857 2.67 6.857 7.447v17.087h4.665v-17.874c0-6.576-3.962-10.792-10.342-10.792-3.681 0-6.857 1.743-8.824 4.61v-4.047h-4.666zM227.696 177.053v4.16h4.215v-4.3c0-5.593 10.764-4.104 10.764-14.305 0-6.127-4.187-10.37-11.944-10.37-7.307 0-12.169 4.271-12.197 11.466h4.16c.028-4.722 2.725-7.532 7.925-7.532 4.89 0 7.7 2.333 7.7 6.689 0 7.532-10.623 5.452-10.623 14.192zm2.108 15.963c1.686 0 3.063-1.405 3.063-3.091 0-1.687-1.405-3.036-3.063-3.036a3.047 3.047 0 00-3.064 3.036c0 1.686 1.35 3.091 3.064 3.091z"/></g></svg>