<svg width="100%" height="100%" viewBox="0 0 200 200" fill="none" xmlns="http://www.w3.org/2000/svg" preserveAspectRatio="none"><circle cx="100" cy="100" r="100" fill="#1BDBDB" data-color-group="0"/><path d="M62.5 73.9583H105.696C106.363 76.355 107.797 78.4672 109.778 79.9721C111.759 81.477 114.179 82.2917 116.667 82.2917C119.155 82.2917 121.574 81.477 123.555 79.9721C125.536 78.4672 126.97 76.355 127.637 73.9583H137.5C138.329 73.9583 139.124 73.6291 139.71 73.043C140.296 72.457 140.625 71.6621 140.625 70.8333C140.625 70.0045 140.296 69.2097 139.71 68.6236C139.124 68.0376 138.329 67.7083 137.5 67.7083H127.637C126.97 65.3117 125.536 63.1994 123.555 61.6946C121.574 60.1897 119.155 59.375 116.667 59.375C114.179 59.375 111.759 60.1897 109.778 61.6946C107.797 63.1994 106.363 65.3117 105.696 67.7083H62.5C61.6712 67.7083 60.8763 68.0376 60.2903 68.6236C59.7042 69.2097 59.375 70.0045 59.375 70.8333C59.375 71.6621 59.7042 72.457 60.2903 73.043C60.8763 73.6291 61.6712 73.9583 62.5 73.9583ZM116.667 65.625C117.697 65.625 118.704 65.9305 119.56 66.5028C120.417 67.0751 121.084 67.8885 121.479 68.8402C121.873 69.7919 121.976 70.8391 121.775 71.8494C121.574 72.8597 121.078 73.7878 120.35 74.5162C119.621 75.2446 118.693 75.7406 117.683 75.9416C116.672 76.1426 115.625 76.0394 114.674 75.6452C113.722 75.251 112.908 74.5834 112.336 73.7269C111.764 72.8704 111.458 71.8634 111.458 70.8333C111.46 69.4524 112.009 68.1284 112.985 67.1519C113.962 66.1754 115.286 65.6263 116.667 65.625Z" fill="#111111" data-color-group="1"/><path d="M137.5 96.875H94.3039C93.6366 94.4783 92.2028 92.3661 90.2217 90.8612C88.2406 89.3564 85.8212 88.5417 83.3333 88.5417C80.8455 88.5417 78.4261 89.3564 76.445 90.8612C74.4639 92.3661 73.0301 94.4783 72.3628 96.875H62.5C61.6712 96.875 60.8763 97.2042 60.2903 97.7903C59.7042 98.3763 59.375 99.1712 59.375 100C59.375 100.829 59.7042 101.624 60.2903 102.21C60.8763 102.796 61.6712 103.125 62.5 103.125H72.3628C73.0301 105.522 74.4639 107.634 76.445 109.139C78.4261 110.644 80.8455 111.458 83.3333 111.458C85.8212 111.458 88.2406 110.644 90.2217 109.139C92.2028 107.634 93.6366 105.522 94.3039 103.125H137.5C138.329 103.125 139.124 102.796 139.71 102.21C140.296 101.624 140.625 100.829 140.625 100C140.625 99.1712 140.296 98.3763 139.71 97.7903C139.124 97.2042 138.329 96.875 137.5 96.875ZM83.3333 105.208C82.3032 105.208 81.2962 104.903 80.4397 104.331C79.5832 103.758 78.9157 102.945 78.5215 101.993C78.1273 101.041 78.0241 99.9942 78.2251 98.9839C78.426 97.9736 78.9221 97.0455 79.6505 96.3172C80.3789 95.5888 81.3069 95.0927 82.3172 94.8917C83.3276 94.6908 84.3748 94.7939 85.3265 95.1881C86.2782 95.5823 87.0916 96.2499 87.6639 97.1064C88.2362 97.9629 88.5417 98.9699 88.5417 100C88.5404 101.381 87.9912 102.705 87.0148 103.681C86.0383 104.658 84.7143 105.207 83.3333 105.208Z" fill="#111111" data-color-group="1"/><path d="M137.5 126.042H127.637C126.97 123.645 125.536 121.533 123.555 120.028C121.574 118.523 119.155 117.708 116.667 117.708C114.179 117.708 111.759 118.523 109.778 120.028C107.797 121.533 106.363 123.645 105.696 126.042H62.5C61.6712 126.042 60.8763 126.371 60.2903 126.957C59.7042 127.543 59.375 128.338 59.375 129.167C59.375 129.995 59.7042 130.79 60.2903 131.376C60.8763 131.962 61.6712 132.292 62.5 132.292H105.696C106.363 134.688 107.797 136.801 109.778 138.305C111.759 139.81 114.179 140.625 116.667 140.625C119.155 140.625 121.574 139.81 123.555 138.305C125.536 136.801 126.97 134.688 127.637 132.292H137.5C138.329 132.292 139.124 131.962 139.71 131.376C140.296 130.79 140.625 129.995 140.625 129.167C140.625 128.338 140.296 127.543 139.71 126.957C139.124 126.371 138.329 126.042 137.5 126.042ZM116.667 134.375C115.637 134.375 114.63 134.07 113.773 133.497C112.917 132.925 112.249 132.112 111.855 131.16C111.461 130.208 111.357 129.161 111.558 128.151C111.759 127.14 112.255 126.212 112.984 125.484C113.712 124.755 114.64 124.259 115.651 124.058C116.661 123.857 117.708 123.961 118.66 124.355C119.612 124.749 120.425 125.417 120.997 126.273C121.57 127.13 121.875 128.137 121.875 129.167C121.874 130.548 121.325 131.872 120.348 132.848C119.372 133.825 118.048 134.374 116.667 134.375Z" fill="#111111" data-color-group="1"/></svg>