<svg width="100%" height="100%" viewBox="0 0 250 250" fill="none" xmlns="http://www.w3.org/2000/svg" preserveAspectRatio="none"><g clip-path="url(#clip0_11_32)"><path d="M227.125 0H22.875C10.2415 0 0 10.2415 0 22.875V227.125C0 239.759 10.2415 250 22.875 250H227.125C239.759 250 250 239.759 250 227.125V22.875C250 10.2415 239.759 0 227.125 0Z" fill="white" data-color-group="0"/><path d="M102.5 61.25H97.5C96.1193 61.25 95 62.3693 95 63.75V82.5C95 83.8807 96.1193 85 97.5 85H102.5C103.881 85 105 83.8807 105 82.5V63.75C105 62.3693 103.881 61.25 102.5 61.25Z" fill="#A6FFF8" data-color-group="1"/><path d="M122.5 50H117.5C116.119 50 115 51.1193 115 52.5V82.5C115 83.8807 116.119 85 117.5 85H122.5C123.881 85 125 83.8807 125 82.5V52.5C125 51.1193 123.881 50 122.5 50Z" fill="#61EDEA" data-color-group="2"/><path d="M140 40H135C133.619 40 132.5 41.1193 132.5 42.5V82.5C132.5 83.8807 133.619 85 135 85H140C141.381 85 142.5 83.8807 142.5 82.5V42.5C142.5 41.1193 141.381 40 140 40Z" fill="#1BDBDB" data-color-group="3"/><path d="M160 28.75H155C153.619 28.75 152.5 29.8693 152.5 31.25V82.5C152.5 83.8807 153.619 85 155 85H160C161.381 85 162.5 83.8807 162.5 82.5V31.25C162.5 29.8693 161.381 28.75 160 28.75Z" fill="#00A4A6" data-color-group="4"/><path d="M61.25 136.25H60C50.5 136.25 43.5 130.125 43.5 120.75C43.5 111.375 50.625 104.5 60.375 104.5C70.125 104.5 77.25 111.625 77.25 120.5C77.25 129.375 72.75 132.625 69.5 137.375L60 151.25H50.5L61.375 136V136.25H61.25ZM69 120.5C69 115.875 65 112 60.125 112C55.25 112 51.375 115.75 51.375 120.5C51.375 125.25 55.375 129 60.125 129C64.875 129 69 125.25 69 120.5Z" fill="black" data-color-group="5"/><path d="M100 136.25H98.75C89.25 136.25 82.25 130.125 82.25 120.75C82.25 111.375 89.375 104.5 99.125 104.5C108.875 104.5 116 111.625 116 120.5C116 129.375 111.5 132.625 108.25 137.375L98.75 151.25H89.25L100.125 136V136.25H100ZM107.875 120.5C107.875 115.875 103.875 112 99 112C94.125 112 90.25 115.75 90.25 120.5C90.25 125.25 94.25 129 99 129C103.75 129 107.875 125.25 107.875 120.5Z" fill="black" data-color-group="5"/><path d="M112.625 147.25C112.625 144.5 114.75 142.375 117.5 142.375C120.25 142.375 122.5 144.5 122.5 147.25C122.5 150 120.375 152.25 117.5 152.25C114.625 152.25 112.625 150 112.625 147.25Z" fill="black" data-color-group="5"/><path d="M141.25 136.25H140C130.5 136.25 123.5 130.125 123.5 120.75C123.5 111.375 130.625 104.5 140.375 104.5C150.125 104.5 157.25 111.625 157.25 120.5C157.25 129.375 152.75 132.625 149.5 137.375L140 151.25H130.5L141.375 136V136.25H141.25ZM149.25 120.5C149.25 115.875 145.25 112 140.375 112C135.5 112 131.625 115.75 131.625 120.5C131.625 125.25 135.625 129 140.375 129C145.125 129 149.25 125.25 149.25 120.5Z" fill="black" data-color-group="5"/><path d="M162 114.5C162 109.125 166.375 104.875 171.625 104.875C176.875 104.875 181.25 109.25 181.25 114.5C181.25 119.75 176.875 124.125 171.625 124.125C166.375 124.125 162 119.75 162 114.5ZM176 114.5C176 112.125 174.125 110.25 171.625 110.25C169.125 110.25 167.375 112.125 167.375 114.5C167.375 116.875 169.25 118.75 171.625 118.75C174 118.75 176 116.875 176 114.5ZM193.75 103.75H200.75L174.5 152.5H167.5L193.75 103.75ZM187.5 141.875C187.5 136.5 191.875 132.25 197.125 132.25C202.375 132.25 206.75 136.625 206.75 141.875C206.75 147.125 202.375 151.5 197.125 151.5C191.875 151.5 187.5 147.125 187.5 141.875ZM201.5 141.875C201.5 139.5 199.625 137.625 197.125 137.625C194.625 137.625 192.875 139.5 192.875 141.875C192.875 144.25 194.75 146.125 197.125 146.125C199.5 146.125 201.5 144.25 201.5 141.875Z" fill="black" data-color-group="5"/><path d="M83.125 183.5C83.125 184.875 83 186 82.625 187C82.25 188 81.75 188.625 80.875 189.25C80 189.875 79 190 77.75 190C76.5 190 75.375 189.75 74.625 189.25C73.875 188.75 73.25 188 72.875 187.125C72.5 186.25 72.375 185 72.375 183.625V170.25H69.875V183.875C69.875 185.625 70.125 187.125 70.75 188.5C71.375 189.75 72.125 190.75 73.375 191.5C74.5 192.25 76 192.5 77.75 192.5C80.5 192.5 82.5 191.75 83.75 190.125C85 188.625 85.75 186.375 85.75 183.75V170.25H83.25V183.625L83.125 183.5Z" fill="black" data-color-group="5"/><path d="M94.5 183H98.125C99.625 183 100.875 182.75 102 182.25C103.125 181.75 104 181.125 104.625 180.125C105.25 179.25 105.5 178.125 105.5 176.75C105.5 175.375 105.25 174.375 104.625 173.375C104 172.5 103.125 171.75 102 171.25C100.875 170.75 99.625 170.5 98.125 170.5H91.875V192.25H94.375V182.875L94.5 183ZM94.5 172.625H98.25C99.875 172.625 101.125 173 102 173.625C102.875 174.375 103.25 175.25 103.25 176.5C103.25 177.75 102.875 178.75 102 179.375C101.125 180 100 180.375 98.25 180.375H94.5V172.5V172.625Z" fill="black" data-color-group="5"/><path d="M115.25 192.375H117.625V172.625H125.125V170.125H107.75V172.625H115.25V192.375Z" fill="black" data-color-group="5"/><path d="M131.5 170.625H129V192.375H131.5V170.625Z" fill="black" data-color-group="5"/><path d="M147.75 192.375H149.875L156.75 174.125V192.375H159.125V170.625H155.75L148.875 189.5L142 170.625H138.375V192.375H140.875V173.875L147.75 192.375Z" fill="black" data-color-group="5"/><path d="M180.375 172.625V170.625H166.125V192.375H180.375V190H168.5V182.5H179.375V180H168.5V172.625H180.375Z" fill="black" data-color-group="5"/><path d="M82.375 209.875C81.75 209.375 81 208.875 80.25 208.625C79.5 208.25 78.625 208 77.875 207.625C77.125 207.375 76.375 207 75.75 206.625C75.125 206.25 74.5 205.875 74.125 205.375C73.75 204.875 73.5 204.25 73.5 203.5C73.5 202.75 73.875 201.875 74.5 201.25C75.125 200.625 76.125 200.375 77.125 200.375C78.125 200.375 78.875 200.625 79.625 201C80.375 201.375 80.875 202.125 81.375 203L83.625 202.125C83 200.75 82.125 199.75 81 199.125C79.875 198.5 78.625 198.125 77.125 198.125C75.625 198.125 74.875 198.375 73.875 198.875C72.875 199.375 72.125 200 71.625 200.875C71.125 201.75 70.75 202.625 70.75 203.625C70.75 204.625 71 205.625 71.375 206.375C71.75 207.125 72.25 207.75 73 208.125C73.625 208.625 74.375 209 75.125 209.375C75.875 209.75 76.75 210 77.5 210.375C78.25 210.625 79 211 79.625 211.375C80.25 211.75 80.875 212.25 81.25 212.75C81.625 213.25 81.875 214 81.875 214.875C81.875 215.75 81.5 216.75 80.75 217.375C80 218 78.875 218.375 77.375 218.375C75.875 218.375 74.75 218 73.75 217.25C72.75 216.5 72.125 215.375 71.875 213.875L69.375 214.5C69.75 216.375 70.75 217.875 72 218.875C73.375 219.875 75.125 220.5 77.125 220.5C79.125 220.5 79.875 220.25 80.875 219.75C82 219.25 82.75 218.5 83.375 217.625C84 216.75 84.25 215.75 84.25 214.625C84.25 213.5 84 212.5 83.625 211.75C83.25 211 82.75 210.375 82 209.875H82.375Z" fill="black" data-color-group="5"/><path d="M87 200.75H94.5V220.625H96.875V200.75H104.375V198.375H87V200.75Z" fill="black" data-color-group="5"/><path d="M112.625 198.375L104.375 220.125H107.125L108.875 215.125H118.5L120.375 220.125H122.75L114.5 198.375H112.5H112.625ZM113.75 201.75L117.75 212.625H109.75L113.75 201.75Z" fill="black" data-color-group="5"/><path d="M123.625 200.75H131V220.625H133.5V200.75H140.875V198.375H123.625V200.75Z" fill="black" data-color-group="5"/><path d="M157.75 211.625C157.75 213 157.625 214.125 157.25 215.125C156.875 216.125 156.375 216.75 155.5 217.375C154.625 218 153.625 218.125 152.375 218.125C151.125 218.125 150 217.875 149.25 217.375C148.5 216.875 147.875 216.125 147.5 215.25C147.125 214.375 147 213.125 147 211.75V198.375H144.5V212C144.5 213.75 144.75 215.25 145.375 216.625C146 217.875 146.75 218.875 148 219.625C149.125 220.375 150.625 220.625 152.375 220.625C155.125 220.625 157.125 219.875 158.375 218.25C159.625 216.75 160.375 214.5 160.375 211.875V198.375H157.875V211.75L157.75 211.625Z" fill="black" data-color-group="5"/><path d="M177.375 209.875C176.75 209.375 176 208.875 175.25 208.625C174.5 208.25 173.625 208 172.875 207.625C172.125 207.375 171.375 207 170.75 206.625C170.125 206.25 169.5 205.875 169.125 205.375C168.75 204.875 168.5 204.25 168.5 203.5C168.5 202.75 168.875 201.875 169.5 201.25C170.125 200.625 171.125 200.375 172.125 200.375C173.125 200.375 173.875 200.625 174.625 201C175.375 201.375 175.875 202.125 176.375 203L178.625 202.125C178 200.75 177.125 199.75 176 199.125C174.875 198.5 173.625 198.125 172.125 198.125C170.625 198.125 169.875 198.375 168.875 198.875C167.875 199.375 167.125 200 166.625 200.875C166.125 201.75 165.75 202.625 165.75 203.625C165.75 204.625 166 205.625 166.375 206.375C166.75 207.125 167.25 207.75 168 208.125C168.625 208.625 169.375 209 170.125 209.375C170.875 209.75 171.75 210 172.5 210.375C173.25 210.625 174 211 174.625 211.375C175.25 211.75 175.875 212.25 176.25 212.75C176.625 213.25 176.875 214 176.875 214.875C176.875 215.75 176.5 216.75 175.75 217.375C175 218 173.875 218.375 172.375 218.375C170.875 218.375 169.75 218 168.75 217.25C167.75 216.5 167.125 215.375 166.875 213.875L164.375 214.5C164.75 216.375 165.75 217.875 167 218.875C168.375 219.875 170.125 220.5 172.125 220.5C174.125 220.5 174.875 220.25 175.875 219.75C177 219.25 177.75 218.5 178.375 217.625C179 216.75 179.25 215.75 179.25 214.625C179.25 213.5 179 212.5 178.625 211.75C178.25 211 177.75 210.375 177 209.875H177.375Z" fill="black" data-color-group="5"/></g><defs><clipPath id="clip0_11_32"><rect width="250" height="250" fill="white" data-color-group="0"/></clipPath></defs></svg>