<svg width="107.5" height="26" viewBox="0 0 107.5 26" xmlns="http://www.w3.org/2000/svg"><g fill="#fff"><path d="M28.03 10.86c1.037 0 1.723-.37 2.198-1.213l.046 1.096h.616V7.086c0-1.47-.85-2.32-2.233-2.32-1.125 0-1.98.574-2.29 1.647h.696c.211-.645.774-1.014 1.56-1.014.978 0 1.581.615 1.581 1.74v.54a4.678 4.678 0 00-1.775-.352c-1.46 0-2.35.732-2.35 1.834 0 1.013.697 1.699 1.951 1.699zm-1.213-1.74c0-.686.575-1.19 1.612-1.19.656 0 1.166.123 1.77.38-.071.997-.727 1.923-2.057 1.923-.897 0-1.325-.457-1.325-1.113zM33.76 10.86c1.39 0 2.169-.697 2.169-1.658 0-2.291-3.422-1.278-3.422-2.907 0-.486.41-.925 1.183-.925.844 0 1.307.41 1.354 1.125h.68c-.018-1.067-.71-1.729-2.004-1.729-1.213 0-1.91.727-1.91 1.564 0 2.291 3.404 1.213 3.404 2.918 0 .604-.469 1.014-1.43 1.008-.978-.006-1.43-.433-1.482-1.207l-.692-.006c.07 1.143.797 1.817 2.15 1.817zM38.677 4.883l2.39 5.86h.616l2.39-5.86h-.78l-1.897 4.922-1.917-4.922zM47.226 10.86c1.687 0 3.005-1.336 3.005-3.041 0-1.717-1.318-3.053-3-3.053-1.687 0-3.005 1.336-3.005 3.041 0 1.717 1.318 3.053 3 3.053zm.005-.645c-1.265 0-2.25-1.043-2.25-2.414 0-1.353.985-2.39 2.245-2.39 1.265 0 2.25 1.043 2.25 2.414 0 1.353-.985 2.39-2.245 2.39zM53.15 10.848c.228 0 .48-.035.667-.094v-.668c-.216.065-.398.1-.632.1-.65 0-1.014-.393-1.014-1.406V5.534h1.605v-.65h-1.605V3.36l-.715.094-.006 1.43h-.972v.65h.972v3.27c0 1.4.598 2.044 1.7 2.044zM57.058 10.86c1.394 0 2.396-.645 2.718-2.004h-.726c-.27.95-.985 1.36-1.975 1.36-1.277 0-2.11-.862-2.144-2.268h4.904c.012-.194.018-.375.018-.575 0-1.67-1.114-2.607-2.678-2.607-1.752 0-2.988 1.313-2.988 3.111 0 1.8 1.125 2.983 2.87 2.983zm.088-5.461c1.154 0 1.98.668 1.98 1.928v.023h-4.154c.181-1.148 1.013-1.951 2.174-1.951zM65.952 10.743V2.457h-.726v3.504c-.47-.785-1.207-1.195-2.122-1.195-1.57 0-2.707 1.166-2.707 3.053 0 1.875 1.131 3.04 2.696 3.04.914 0 1.664-.404 2.133-1.195v1.079zm-2.8-.528c-1.196 0-2.005-.931-2.005-2.408 0-1.465.815-2.396 2.022-2.396 1.266 0 2.115.896 2.115 2.402 0 1.506-.85 2.402-2.133 2.402zM69.76 10.743h.727V9.664c.47.786 1.207 1.196 2.116 1.196 1.576 0 2.712-1.166 2.712-3.053 0-1.875-1.13-3.041-2.695-3.041-.92 0-1.664.404-2.133 1.195V2.457h-.726zm2.784-.528c-1.272 0-2.115-.896-2.115-2.402 0-1.506.85-2.402 2.133-2.402 1.195 0 1.998.931 1.998 2.408 0 1.465-.809 2.396-2.016 2.396zM78.497 13.286c1.6 0 2.52-.909 2.52-2.73V4.882h-.727v3.381c0 1.16-.785 1.922-1.793 1.922-.973 0-1.547-.592-1.547-1.711V4.883h-.726V8.58c0 1.383.797 2.25 2.144 2.25.82 0 1.512-.398 1.922-1.066v.89c0 1.43-.61 2.028-1.775 2.028-.932 0-1.436-.38-1.582-1.143h-.71c.206 1.108.962 1.747 2.274 1.747z"/></g><g fill="#fff"><path d="M5.84 15.657v8.286h.768V20.11h4.653v3.832h.761v-8.286h-.761v3.756H6.608v-3.756zM15.942 24.06c1.688 0 3.006-1.336 3.006-3.041 0-1.717-1.318-3.053-3-3.053-1.687 0-3.006 1.336-3.006 3.041 0 1.717 1.319 3.053 3 3.053zm.006-.645c-1.265 0-2.25-1.043-2.25-2.414 0-1.353.985-2.39 2.244-2.39 1.266 0 2.25 1.043 2.25 2.414 0 1.353-.984 2.39-2.244 2.39zM21.52 24.06c1.39 0 2.168-.697 2.168-1.658 0-2.291-3.421-1.278-3.421-2.907 0-.486.41-.925 1.183-.925.844 0 1.307.41 1.354 1.125h.68c-.018-1.067-.71-1.729-2.005-1.729-1.212 0-1.91.727-1.91 1.564 0 2.291 3.405 1.213 3.405 2.918 0 .604-.47 1.014-1.43 1.008-.979-.006-1.43-.433-1.482-1.207l-.692-.006c.07 1.143.797 1.817 2.15 1.817zM26.636 24.048c.228 0 .48-.035.668-.094v-.668c-.217.065-.399.1-.633.1-.65 0-1.014-.393-1.014-1.406v-3.246h1.606v-.65h-1.606V16.56l-.715.094-.005 1.43h-.973v.65h.973v3.27c0 1.4.597 2.044 1.699 2.044zM28.423 16.63c.27 0 .498-.223.498-.498a.498.498 0 10-.498.498zm-.363 7.313h.726v-5.86h-.726zM30.146 23.943h.726v-3.41c0-1.16.785-1.922 1.793-1.922.967 0 1.547.597 1.547 1.71v3.622h.726V20.21c0-1.383-.802-2.244-2.15-2.244-.82 0-1.506.398-1.916 1.066v-.949h-.726zM38.677 26.486c1.717 0 2.748-1.026 2.748-3.047v-5.356h-.727v1.078c-.469-.785-1.207-1.195-2.12-1.195-1.571 0-2.708 1.166-2.708 3.053 0 1.875 1.131 3.04 2.695 3.04.914 0 1.664-.404 2.133-1.195v.698c0 1.6-.709 2.308-2.039 2.308-.984 0-1.594-.404-1.828-1.23h-.709c.322 1.224 1.178 1.846 2.555 1.846zm-.053-3.07c-1.195 0-2.004-.932-2.004-2.409 0-1.465.815-2.396 2.022-2.396 1.265 0 2.115.896 2.115 2.402 0 1.506-.85 2.402-2.133 2.402zM45.942 15.657h-.62l-3.065 8.286h.808l.721-1.993h3.674l.715 1.993h.832zm-1.94 5.625l1.618-4.57 1.623 4.57zM55.019 23.943v-8.286h-.727v3.504c-.469-.785-1.207-1.195-2.121-1.195-1.57 0-2.707 1.166-2.707 3.053 0 1.875 1.13 3.04 2.695 3.04.914 0 1.664-.404 2.133-1.195v1.079zm-2.801-.528c-1.196 0-2.004-.931-2.004-2.408 0-1.465.814-2.396 2.021-2.396 1.266 0 2.116.896 2.116 2.402 0 1.506-.85 2.402-2.133 2.402zM55.798 18.083l2.39 5.86h.616l2.39-5.86h-.779l-1.898 4.922-1.916-4.922zM62.337 16.63c.27 0 .498-.223.498-.498a.498.498 0 10-.498.498zm-.363 7.313h.726v-5.86h-.726zM66.48 24.06c1.423 0 2.35-.645 2.712-1.852h-.738c-.293.803-.92 1.213-1.94 1.213-1.27 0-2.12-.908-2.12-2.408 0-1.389.914-2.408 2.132-2.408 1.02 0 1.612.398 1.864 1.207h.75c-.364-1.237-1.19-1.846-2.602-1.846-1.652 0-2.9 1.313-2.9 3.059 0 1.84 1.16 3.035 2.841 3.035zM72.526 24.06c1.395 0 2.397-.645 2.72-2.004h-.727c-.27.95-.985 1.36-1.975 1.36-1.277 0-2.11-.862-2.145-2.268h4.905c.011-.194.017-.375.017-.575 0-1.67-1.113-2.607-2.677-2.607-1.752 0-2.989 1.313-2.989 3.111 0 1.8 1.125 2.983 2.871 2.983zm.088-5.461c1.155 0 1.98.668 1.98 1.928v.023H70.44c.182-1.148 1.014-1.951 2.174-1.951zM76.294 24.03a.519.519 0 00.516-.51.515.515 0 00-.516-.51.51.51 0 000 1.02zM80.179 24.06c1.424 0 2.35-.645 2.713-1.852h-.739c-.293.803-.92 1.213-1.94 1.213-1.27 0-2.12-.908-2.12-2.408 0-1.389.914-2.408 2.133-2.408 1.02 0 1.61.398 1.863 1.207h.75c-.363-1.237-1.19-1.846-2.602-1.846-1.652 0-2.9 1.313-2.9 3.059 0 1.84 1.16 3.035 2.842 3.035zM86.337 24.06c1.687 0 3.006-1.336 3.006-3.041 0-1.717-1.319-3.053-3-3.053-1.688 0-3.006 1.336-3.006 3.041 0 1.717 1.318 3.053 3 3.053zm.006-.645c-1.266 0-2.25-1.043-2.25-2.414 0-1.353.984-2.39 2.244-2.39 1.266 0 2.25 1.043 2.25 2.414 0 1.353-.984 2.39-2.244 2.39zM90.263 23.943h.726V20.52c0-1.155.774-1.91 1.77-1.91.955 0 1.523.591 1.523 1.699v3.633h.727V20.52c0-1.155.773-1.91 1.763-1.91.956 0 1.524.591 1.524 1.699v3.633h.726V20.21c0-1.383-.79-2.244-2.126-2.244-.903 0-1.63.457-2.063 1.236-.299-.785-.979-1.236-1.951-1.236-.815 0-1.5.398-1.904 1.066v-.949h-.715zM100.991 24.03a.519.519 0 00.516-.51.515.515 0 00-.516-.51.51.51 0 000 1.02z"/></g></svg>